<?xml version="1.0" encoding="UTF-8" standalone="no"?>
<!DOCTYPE svg PUBLIC "-//W3C//DTD SVG 1.1//EN" "http://www.w3.org/Graphics/SVG/1.1/DTD/svg11.dtd">
<!-- Microsoft Visio、SVG Export により生成 mycardboard_sheet1_line.svg シート1 -->
<svg xmlns="http://www.w3.org/2000/svg" xmlns:xlink="http://www.w3.org/1999/xlink" xmlns:ev="http://www.w3.org/2001/xml-events"
		xmlns:v="http://schemas.microsoft.com/visio/2003/SVGExtensions/" width="11.6929in" height="16.0354in"
		viewBox="0 0 841.89 1154.55" xml:space="preserve" color-interpolation-filters="sRGB" class="st4">
	<v:documentProperties v:langID="1041" v:metric="true" v:viewMarkup="false">
		<v:userDefs>
			<v:ud v:nameU="msvSubprocessMaster" v:prompt="" v:val="VT4(Rectangle)"/>
			<v:ud v:nameU="msvNoAutoConnect" v:val="VT0(1):26"/>
		</v:userDefs>
	</v:documentProperties>

	<style type="text/css">
	<![CDATA[
		.st1 {stroke:#000000;stroke-linecap:round;stroke-linejoin:round;stroke-width:0.25}
		.st2 {fill:none;stroke:#000000;stroke-width:0.25}
		.st3 {stroke:#000000;stroke-width:0.25}
		.st4 {fill:none;fill-rule:evenodd;font-size:12px;overflow:visible;stroke-linecap:square;stroke-miterlimit:3}
	]]>
	</style>

	<g v:mID="6" v:index="3" v:groupContext="foregroundPage">
		<v:userDefs>
			<v:ud v:nameU="msvThemeOrder" v:val="VT0(0):26"/>
		</v:userDefs>
		<title>シート1</title>
		<v:pageProperties v:drawingScale="0.0393701" v:pageScale="0.0393701" v:drawingUnits="24" v:shadowOffsetX="8.50394"
				v:shadowOffsetY="-8.50394"/>
		<g id="shape57-1" v:mID="57" v:groupContext="shape" transform="translate(297.638,1974.61) rotate(180)">
			<title>シート.57</title>
			<path d="M0 1154.55 L28.35 1154.55" class="st1"/>
		</g>
		<g id="shape58-4" v:mID="58" v:groupContext="shape" transform="translate(354.331,1974.61) rotate(180)">
			<title>シート.58</title>
			<path d="M0 1154.55 L28.35 1154.55" class="st1"/>
		</g>
		<g id="shape59-7" v:mID="59" v:groupContext="shape" transform="translate(411.024,1974.61) rotate(180)">
			<title>シート.59</title>
			<path d="M0 1154.55 L28.35 1154.55" class="st1"/>
		</g>
		<g id="shape60-10" v:mID="60" v:groupContext="shape" transform="translate(467.717,1974.61) rotate(180)">
			<title>シート.60</title>
			<path d="M0 1154.55 L28.35 1154.55" class="st1"/>
		</g>
		<g id="shape61-13" v:mID="61" v:groupContext="shape" transform="translate(524.409,1974.61) rotate(180)">
			<title>シート.61</title>
			<path d="M0 1154.55 L28.35 1154.55" class="st1"/>
		</g>
		<g id="shape62-16" v:mID="62" v:groupContext="shape" transform="translate(581.102,1974.61) rotate(180)">
			<title>シート.62</title>
			<path d="M0 1154.55 L28.35 1154.55" class="st1"/>
		</g>
		<g id="shape86-19" v:mID="86" v:groupContext="shape" transform="translate(-916.441,876.756) rotate(-90)">
			<title>シート.86</title>
			<path d="M0 1154.55 L28.35 1154.55" class="st1"/>
		</g>
		<g id="shape87-22" v:mID="87" v:groupContext="shape" transform="translate(-916.441,933.449) rotate(-90)">
			<title>シート.87</title>
			<path d="M0 1154.55 L28.35 1154.55" class="st1"/>
		</g>
		<g id="shape88-25" v:mID="88" v:groupContext="shape" transform="translate(-916.441,990.142) rotate(-90)">
			<title>シート.88</title>
			<path d="M0 1154.55 L28.35 1154.55" class="st1"/>
		</g>
		<g id="shape89-28" v:mID="89" v:groupContext="shape" transform="translate(-916.441,1046.83) rotate(-90)">
			<title>シート.89</title>
			<path d="M0 1154.55 L28.35 1154.55" class="st1"/>
		</g>
		<g id="shape90-31" v:mID="90" v:groupContext="shape" transform="translate(-916.441,1103.53) rotate(-90)">
			<title>シート.90</title>
			<path d="M0 1154.55 L28.35 1154.55" class="st1"/>
		</g>
		<g id="shape94-34" v:mID="94" v:groupContext="shape" transform="translate(102.047,-128.268)">
			<title>シート.94</title>
			<rect x="0" y="1138.96" width="59.5276" height="15.5906" class="st2"/>
		</g>
		<g id="shape96-36" v:mID="96" v:groupContext="shape" transform="translate(681.732,-128.268)">
			<title>シート.96</title>
			<rect x="0" y="1138.96" width="62.3622" height="15.5906" class="st2"/>
		</g>
		<g id="shape97-38" v:mID="97" v:groupContext="shape" transform="translate(283.465,-128.268)">
			<title>シート.97</title>
			<rect x="0" y="1138.96" width="56.6929" height="15.5906" class="st2"/>
		</g>
		<g id="shape98-40" v:mID="98" v:groupContext="shape" transform="translate(504.567,-128.268)">
			<title>シート.98</title>
			<rect x="0" y="1138.96" width="56.6929" height="15.5906" class="st2"/>
		</g>
		<g id="shape99-42" v:mID="99" v:groupContext="shape" transform="translate(238.11,-22.6772)">
			<title>シート.99</title>
			<path d="M0 1154.55 A158.389 92.0897 131.38 0 1 129.97 1044 A19.1371 11.1266 -77.33 0 0 138.9 1035.5 A948.531 334.317
						 100.63 0 1 158.74 995.81 A29.2626 22.2248 0 0 1 209.76 995.81 A270.619 94.5622 81.64 0 1 229.61 1035.5 A20.748
						 12.0357 -101.12 0 0 238.11 1044 A158.605 92.0052 48.51 0 1 368.5 1154.55" class="st3"/>
		</g>
		<g id="shape126-45" v:mID="126" v:groupContext="shape" transform="translate(418.819,-206.929)">
			<title>シート.126</title>
			<rect x="0" y="1097.86" width="7.08661" height="56.6929" class="st2"/>
		</g>
		<g id="shape131-47" v:mID="131" v:groupContext="shape" transform="translate(1513.13,685.417) rotate(90)">
			<title>シート.131</title>
			<path d="M0 1133.29 A21.2598 21.2598 -180 1 0 42.52 1133.29 L42.52 1048.25 A21.2598 21.2598 -180 0 0 -0 1048.25 L0 1133.29
						 Z" class="st2"/>
		</g>
		<g id="shape143-49" v:mID="143" v:groupContext="shape" transform="translate(25.5118,-22.6772)">
			<title>シート.143</title>
			<path d="M209.76 814.39 L0 814.39 L0 1154.55 L63.78 1154.55 L63.78 1086.52 A96.0742 96.0742 0 0 1 148.82 1086.52 L148.82
						 1154.55 L646.3 1154.55 L646.3 1086.52 A96.0742 96.0742 0 0 1 731.34 1086.52 L731.34 1154.55 L793.7 1154.55
						 L793.7 814.39 L583.94 814.39 L583.94 842.74 L578.27 842.74 L578.27 624.47 L581.1 624.47 L581.1 545.1 L212.6
						 545.1 L212.6 624.47 L215.43 624.47 L215.43 842.74 L209.76 842.74 L209.76 814.39 Z" class="st2"/>
		</g>
		<g id="shape144-51" v:mID="144" v:groupContext="shape" transform="translate(85.0394,1974.61) rotate(180)">
			<title>シート.144</title>
			<path d="M0 1154.55 L28.35 1154.55" class="st1"/>
		</g>
		<g id="shape145-54" v:mID="145" v:groupContext="shape" transform="translate(141.732,1974.61) rotate(180)">
			<title>シート.145</title>
			<path d="M0 1154.55 L28.35 1154.55" class="st1"/>
		</g>
		<g id="shape146-57" v:mID="146" v:groupContext="shape" transform="translate(198.425,1974.61) rotate(180)">
			<title>シート.146</title>
			<path d="M0 1154.55 L28.35 1154.55" class="st1"/>
		</g>
		<g id="shape147-60" v:mID="147" v:groupContext="shape" transform="translate(677.48,1974.61) rotate(180)">
			<title>シート.147</title>
			<path d="M0 1154.55 L28.35 1154.55" class="st1"/>
		</g>
		<g id="shape148-63" v:mID="148" v:groupContext="shape" transform="translate(734.173,1974.61) rotate(180)">
			<title>シート.148</title>
			<path d="M0 1154.55 L28.35 1154.55" class="st1"/>
		</g>
		<g id="shape149-66" v:mID="149" v:groupContext="shape" transform="translate(790.866,1974.61) rotate(180)">
			<title>シート.149</title>
			<path d="M0 1154.55 L28.35 1154.55" class="st1"/>
		</g>
		<g id="shape150-69" v:mID="150" v:groupContext="shape" transform="translate(294.803,1756.35) rotate(180)">
			<title>シート.150</title>
			<path d="M0 1154.55 L28.35 1154.55" class="st1"/>
		</g>
		<g id="shape151-72" v:mID="151" v:groupContext="shape" transform="translate(351.496,1756.35) rotate(180)">
			<title>シート.151</title>
			<path d="M0 1154.55 L28.35 1154.55" class="st1"/>
		</g>
		<g id="shape152-75" v:mID="152" v:groupContext="shape" transform="translate(408.189,1756.35) rotate(180)">
			<title>シート.152</title>
			<path d="M0 1154.55 L28.35 1154.55" class="st1"/>
		</g>
		<g id="shape153-78" v:mID="153" v:groupContext="shape" transform="translate(464.882,1756.35) rotate(180)">
			<title>シート.153</title>
			<path d="M0 1154.55 L28.35 1154.55" class="st1"/>
		</g>
		<g id="shape154-81" v:mID="154" v:groupContext="shape" transform="translate(521.575,1756.35) rotate(180)">
			<title>シート.154</title>
			<path d="M0 1154.55 L28.35 1154.55" class="st1"/>
		</g>
		<g id="shape155-84" v:mID="155" v:groupContext="shape" transform="translate(578.268,1756.35) rotate(180)">
			<title>シート.155</title>
			<path d="M0 1154.55 L28.35 1154.55" class="st1"/>
		</g>
		<g id="shape156-87" v:mID="156" v:groupContext="shape" transform="translate(-547.937,876.756) rotate(-90)">
			<title>シート.156</title>
			<path d="M0 1154.55 L28.35 1154.55" class="st1"/>
		</g>
		<g id="shape157-90" v:mID="157" v:groupContext="shape" transform="translate(-547.937,933.449) rotate(-90)">
			<title>シート.157</title>
			<path d="M0 1154.55 L28.35 1154.55" class="st1"/>
		</g>
		<g id="shape158-93" v:mID="158" v:groupContext="shape" transform="translate(-547.937,990.142) rotate(-90)">
			<title>シート.158</title>
			<path d="M0 1154.55 L28.35 1154.55" class="st1"/>
		</g>
		<g id="shape159-96" v:mID="159" v:groupContext="shape" transform="translate(-547.937,1046.83) rotate(-90)">
			<title>シート.159</title>
			<path d="M0 1154.55 L28.35 1154.55" class="st1"/>
		</g>
		<g id="shape160-99" v:mID="160" v:groupContext="shape" transform="translate(-547.937,1103.53) rotate(-90)">
			<title>シート.160</title>
			<path d="M0 1154.55 L28.35 1154.55" class="st1"/>
		</g>
	</g>
</svg>
